<?xml version="1.0" standalone="no"?>
<!DOCTYPE svg PUBLIC "-//W3C//DTD SVG 20010904//EN"
 "http://www.w3.org/TR/2001/REC-SVG-20010904/DTD/svg10.dtd">
<svg version="1.0" xmlns="http://www.w3.org/2000/svg"
 width="1200.000000pt" height="1200.000000pt" viewBox="0 0 1200.000000 1200.000000"
 preserveAspectRatio="xMidYMid meet">
<metadata>
Created by potrace 1.11, written by Peter Selinger 2001-2013
</metadata>
<g transform="translate(0.000000,1200.000000) scale(0.100000,-0.100000)"
fill="#000000" stroke="none">
<path d="M3549 10306 c-1 -17 -1 -33 -1 -36 0 -3 3 -37 6 -75 14 -189 70 -386
161 -565 32 -63 134 -224 171 -270 128 -157 302 -326 474 -460 180 -140 492
-339 730 -468 36 -19 70 -38 75 -42 10 -7 167 -90 320 -169 44 -23 83 -45 87
-49 4 -4 -43 -33 -105 -65 -512 -263 -975 -549 -1189 -735 -121 -104 -152
-133 -222 -206 -139 -142 -251 -293 -333 -446 -48 -90 -117 -269 -129 -336 -3
-15 -7 -30 -9 -34 -2 -4 -7 -29 -10 -56 -4 -27 -11 -67 -15 -89 -9 -42 -7
-405 3 -441 3 -12 8 -39 11 -60 38 -238 173 -511 369 -749 55 -66 269 -278
313 -310 15 -11 32 -25 38 -30 34 -32 259 -194 371 -267 195 -127 543 -323
818 -463 114 -58 117 -49 -43 -130 -662 -340 -1063 -606 -1361 -904 -153 -153
-251 -280 -338 -436 -86 -154 -160 -371 -176 -511 -3 -27 -7 -62 -10 -79 -4
-29 -8 -128 -6 -151 1 -9 63 -12 226 -11 197 0 225 2 226 16 2 43 9 121 15
161 4 25 7 48 6 51 0 3 5 26 12 50 l13 44 1956 0 1955 0 12 -58 c14 -73 21
-126 24 -202 l3 -60 209 -2 c252 -2 255 -2 249 35 -2 15 -7 65 -10 112 -24
377 -222 757 -565 1085 -83 79 -100 94 -195 170 -27 22 -52 42 -55 45 -7 8
-134 98 -190 135 -25 16 -47 32 -50 35 -3 3 -63 42 -135 86 -194 121 -411 243
-720 404 -55 28 -103 55 -107 59 -4 3 41 31 100 61 501 255 865 479 1184 728
94 73 317 298 390 392 244 316 353 632 349 1015 -1 61 -3 124 -5 140 -2 17 -7
55 -11 85 -10 78 -67 271 -109 369 -85 198 -221 389 -410 576 -155 154 -295
266 -526 419 -256 170 -523 324 -892 512 -42 21 -74 42 -70 46 4 4 45 27 92
51 366 189 618 333 850 485 80 52 147 97 150 101 3 3 21 17 40 30 85 59 233
184 329 276 262 254 418 498 502 787 43 150 66 308 60 419 -1 15 -25 17 -226
17 -124 0 -225 -3 -226 -7 0 -3 -2 -35 -4 -71 -5 -78 -22 -189 -33 -220 l-8
-22 -1905 0 c-1047 0 -1927 1 -1956 1 l-52 1 -10 53 c-13 65 -23 139 -26 197
-2 25 -4 50 -4 56 -1 8 -65 12 -226 12 l-225 0 -1 -32z m4341 -474 c0 -14 -78
-155 -121 -219 -86 -128 -264 -322 -360 -392 l-35 -26 -1372 0 -1371 0 -28 25
c-243 218 -403 412 -473 574 l-18 43 1889 0 c1039 0 1889 -3 1889 -5z m-758
-823 c-21 -18 -195 -127 -322 -201 -174 -102 -403 -225 -637 -341 l-171 -86
-119 61 c-450 232 -918 499 -995 567 -4 4 501 7 1122 7 621 0 1126 -3 1122 -7z
m-1096 -1068 c5 -4 81 -45 169 -91 226 -117 495 -264 598 -326 49 -30 90 -54
92 -54 6 0 235 -150 235 -154 0 -1 -508 -2 -1130 -2 -621 0 -1130 3 -1130 7 0
27 392 257 760 447 91 47 206 107 255 133 88 46 131 58 151 40z m1341 -810
c22 -2 288 -273 352 -358 33 -45 61 -85 61 -89 0 -4 6 -15 14 -23 14 -16 86
-153 86 -164 0 -3 -850 -5 -1890 -5 -1423 0 -1890 3 -1890 11 0 17 75 151 128
231 82 122 322 375 374 395 13 4 2708 7 2765 2z m578 -823 c3 -2 12 -38 21
-79 23 -105 22 -365 -3 -474 l-18 -80 -1950 -3 c-1072 -1 -1952 1 -1956 5 -8
8 -10 18 -33 148 -19 111 -12 308 15 437 10 46 11 47 52 50 64 5 3868 1 3872
-4z m-80 -840 c-11 -35 -91 -165 -151 -246 -69 -91 -164 -193 -276 -294 l-88
-78 -1365 0 -1364 0 -38 32 c-196 168 -341 341 -443 531 l-42 77 1887 0 1886
0 -6 -22z m-843 -853 c-46 -30 -85 -55 -86 -55 -2 0 -43 -24 -92 -54 -167
-100 -368 -210 -649 -356 -88 -45 -164 -86 -170 -91 -20 -19 -59 -6 -221 77
-347 177 -578 303 -739 404 -139 87 -195 123 -195 126 0 2 503 4 1118 4 l1117
0 -83 -55z m-878 -1071 c257 -130 478 -248 688 -369 73 -42 276 -173 281 -182
3 -5 -501 -8 -1119 -8 -618 0 -1124 1 -1124 1 0 1 48 33 108 71 175 115 394
239 712 406 69 36 163 85 210 110 47 25 87 46 89 46 2 1 71 -33 155 -75z
m1257 -765 c52 -41 229 -220 280 -286 67 -85 122 -169 163 -250 20 -38 36 -72
36 -74 0 -2 -849 -4 -1887 -4 -1646 1 -1888 3 -1885 15 8 38 124 222 187 299
79 97 214 232 301 302 l32 25 1369 0 1370 -1 34 -26z"/>
</g>
</svg>
